<svg width="201" height="199" viewBox="0 0 201 199" fill="none" xmlns="http://www.w3.org/2000/svg">
<rect x="2" y="1" width="196" height="196" rx="98" stroke="white" stroke-width="4"/>
<path d="M41.2703 90.754C41.4155 95.9065 40.8744 101.135 41.5521 106.213C42.3404 109.613 48.8596 107.994 51.4596 107.835C61.948 106.215 71.1381 98.7239 74.7824 88.8304C78.0895 79.6551 76.2778 69.7599 76.5734 60.1661C76.5872 56.8769 76.5492 53.6514 76.6201 50.3502C76.4368 46.949 78.067 40.8562 73.2697 40.2621C63.2239 39.4372 51.6446 40.1364 45.0321 48.6453C40.6099 53.9304 40.9626 60.9445 41.0387 67.454V67.4884L41.2686 90.7557L41.2703 90.754Z" fill="white"/>
<path d="M41.8165 119.305C41.8388 127.3 42.4675 135.005 47.0072 141.84C48.8368 144.74 51.0569 147.497 53.7225 149.627C56.6159 151.908 60.0695 153.682 63.422 155.139C67.3672 156.803 71.6122 157.544 75.8316 157.765C80.2513 158.024 85.0137 158.066 89.5688 157.905C97.3256 157.737 104.157 156.404 109.608 150.41C112.516 147.211 114.904 143.48 115.572 139.085C116.519 133.496 115.176 128.183 112.058 123.515C109.153 119.19 104.515 116.044 99.6794 114.318C98.0931 113.782 95.9894 113.383 94.4579 113.276C88.7893 113.199 66.7813 113.283 52.9276 113.248C50.4454 113.246 48.1378 113.248 45.7344 113.248C44.9618 113.292 44.1583 113.131 43.5056 113.412C41.7172 114.43 41.808 117.414 41.8183 119.274V119.308L41.8165 119.305Z" fill="white"/>
<path d="M158.732 106.642C158.587 101.428 159.128 96.1373 158.45 90.9985C157.662 87.5586 151.142 89.1966 148.542 89.3569C138.053 90.9967 128.863 98.5769 125.218 108.588C121.911 117.872 123.723 127.885 123.427 137.593C123.413 140.922 123.451 144.185 123.381 147.526C123.564 150.968 121.933 157.133 126.731 157.734C136.776 158.57 148.357 157.863 154.97 149.251C159.391 143.903 159.038 136.806 158.962 130.22V130.186L158.732 106.642Z" fill="white"/>
<path d="M158.998 78.6948C158.976 70.7 158.34 62.995 153.751 56.1594C151.901 53.2594 149.656 50.5025 146.962 48.3724C144.036 46.0921 140.545 44.3182 137.156 42.8603C133.167 41.1964 128.875 40.4561 124.61 40.2344C120.141 39.976 115.327 39.9341 110.721 40.0947C102.879 40.2623 95.9725 41.5962 90.4615 47.5902C87.5225 50.7888 85.1082 54.52 84.4327 58.9146C83.475 64.5035 84.8328 69.8165 87.9849 74.4852C90.9222 78.81 95.6105 81.9563 100.5 83.6813C102.103 84.2173 104.23 84.6172 105.779 84.7237C111.509 84.8005 133.759 84.7167 147.765 84.7516C150.275 84.7533 152.608 84.7516 155.037 84.7516C155.819 84.7079 156.631 84.8686 157.291 84.5875C159.099 83.5696 159.007 80.5857 158.997 78.7262V78.6913L158.998 78.6948Z" fill="white"/>
</svg>
