<svg width="2069" height="681" viewBox="0 0 2069 681" fill="none" xmlns="http://www.w3.org/2000/svg">
<g clip-path="url(#clip0_17111_2)">
<path d="M2.54414 294.733C3.38414 324.653 0.254137 355.013 4.17414 384.503C8.73414 404.243 46.4441 394.843 61.4841 393.923C122.154 384.513 175.314 341.013 196.394 283.563C215.524 230.283 205.044 172.823 206.754 117.113C206.834 98.0128 206.614 79.2828 207.024 60.1128C205.964 40.3628 215.394 4.9828 187.644 1.5328C129.534 -3.2572 62.5541 0.802803 24.3041 50.2128C-1.27586 80.9028 0.764137 121.633 1.20414 159.433V159.633L2.53414 294.743L2.54414 294.733Z" fill="#1E1E20"/>
<path d="M2.06297 458.712C2.19297 504.502 5.86297 548.632 32.363 587.782C43.043 604.392 56.003 620.182 71.563 632.382C88.453 645.442 108.613 655.602 128.183 663.952C151.213 673.482 175.993 677.722 200.623 678.992C226.423 680.472 254.223 680.712 280.813 679.792C326.093 678.832 365.973 671.192 397.793 636.862C414.763 618.542 428.703 597.172 432.603 572.002C438.133 539.992 430.293 509.562 412.093 482.822C395.133 458.052 368.063 440.032 339.833 430.152C330.573 427.082 318.293 424.792 309.353 424.182C276.263 423.742 147.793 424.222 66.923 424.022C52.433 424.012 38.963 424.022 24.933 424.022C20.423 424.272 15.733 423.352 11.923 424.962C1.48297 430.792 2.01297 447.882 2.07297 458.532V458.732L2.06297 458.712Z" fill="#1E1E20"/>
<path d="M679.744 385.603C678.904 355.683 682.034 325.323 678.114 295.833C673.554 276.093 635.844 285.492 620.804 286.412C560.134 295.822 506.974 339.323 485.894 396.773C466.764 450.053 477.244 507.513 475.534 563.223C475.454 582.323 475.674 601.053 475.264 620.223C476.324 639.973 466.894 675.352 494.644 678.802C552.744 683.602 619.734 679.542 657.984 630.122C683.554 599.432 681.514 558.703 681.074 520.913V520.713L679.744 385.603Z" fill="#1E1E20"/>
<path d="M680.215 221.622C680.085 175.832 676.415 131.702 649.915 92.5524C639.235 75.9424 626.275 60.1524 610.715 47.9524C593.825 34.8923 573.665 24.7324 554.095 16.3824C531.065 6.85235 506.285 2.61235 481.655 1.34235C455.855 -0.137648 428.055 -0.377648 401.465 0.542352C356.185 1.50235 316.305 9.14235 284.485 43.4724C267.515 61.7924 253.575 83.1624 249.675 108.332C244.145 140.342 251.985 170.772 270.185 197.512C287.145 222.282 314.215 240.302 342.445 250.182C351.705 253.252 363.985 255.542 372.925 256.152C406.015 256.592 534.485 256.112 615.355 256.312C629.845 256.322 643.315 256.312 657.345 256.312C661.855 256.062 666.545 256.982 670.355 255.372C680.795 249.542 680.265 232.452 680.205 221.802V221.602L680.215 221.622Z" fill="#1E1E20"/>
<path d="M1465.97 404.591H1140.29C1140.85 472.179 1195.32 536.019 1263.82 540.928C1325.33 545.331 1376.99 516.052 1405.96 462.271L1451.82 484.885C1406.6 563.622 1321.26 605.424 1231.01 583.882C1110.78 555.178 1057.93 414.712 1109.34 306.442C1148.75 223.422 1236.37 183.043 1326.01 204.919C1413.68 226.311 1476.15 314.33 1465.96 404.602L1465.97 404.591ZM1412.53 356.113C1402.83 303.604 1361.05 260.953 1308.7 250.54C1249.54 238.763 1192.2 262.094 1161.03 313.774C1156 322.117 1145.03 344.872 1144.7 354.032C1144.65 355.274 1144.87 355.345 1145.82 356.113H1412.52H1412.53Z" fill="#1E1E20"/>
<path d="M2066.91 317.734H2018C2015.75 313.18 2016.29 307.17 2014.99 301.565C1997.42 226.13 1835.14 231.493 1846.35 313.937C1851.95 355.144 1933.63 360.255 1966.09 368.728C2014.5 381.373 2060.42 403.522 2067.79 458.757C2081.58 562.33 1975.05 600.346 1890.11 586.226C1826.32 575.631 1777.95 528.284 1779.54 461.151H1827.94C1827.76 500.772 1854.42 528.365 1891.46 537.414C1934.62 547.968 2015.79 537.929 2019.5 480.825C2023.78 414.823 1927.7 411.672 1882.37 400.058C1840.04 389.21 1801.05 367.617 1796.8 319.118C1787.13 208.425 1917.85 177.732 2000.01 215.555C2041.05 234.442 2065.91 272.296 2066.9 317.734H2066.91Z" fill="#1E1E20"/>
<path d="M1518.9 461.15C1521.37 461.918 1520.15 468.554 1520.42 470.735C1529.08 539.767 1614.4 553.966 1668.89 532.616C1728.18 509.396 1726 442.718 1664.84 421.004C1603.07 399.077 1494.28 405.622 1488.1 316.259C1480.2 201.98 1626.92 174.54 1705.84 223.382C1738.97 243.874 1759.39 279.335 1758.34 318.744C1757.98 319.249 1757.06 317.734 1756.84 317.734H1708.95C1708.49 257.954 1642.25 242.329 1593.79 250.359C1559.27 256.085 1520.32 291.353 1543.75 328.167C1560.86 355.032 1633.01 361.89 1663.79 370.535C1724.24 387.503 1768.59 419.943 1760.24 489.803C1750.47 571.52 1658.68 596.224 1588.6 587.246C1522.2 578.742 1470.87 530.464 1472 461.14H1518.88L1518.9 461.15Z" fill="#1E1E20"/>
<path d="M927.542 91.5V204.617H1079.79V255.116H927.542L927.502 461.696C929.135 496.863 939.199 529.142 976.946 538.413C1012.15 547.059 1048.52 535.364 1079.79 519.728V573.258C1063.4 578.903 1047.07 584.852 1029.74 587.256C947.335 598.679 882.19 559.158 879.154 471.745V255.116H789.406V205.627L879.145 204.617V91.5H927.542Z" fill="#1E1E20"/>
</g>
<defs>
<clipPath id="clip0_17111_2">
<rect width="2069" height="681" fill="white"/>
</clipPath>
</defs>
</svg>
