<svg width="2493" height="681" viewBox="0 0 2493 681" fill="none" xmlns="http://www.w3.org/2000/svg">
<path d="M1.56367 294.733C2.40367 324.653 -0.726331 355.013 3.19367 384.503C7.75367 404.243 45.4637 394.843 60.5037 393.923C121.174 384.513 174.334 341.013 195.414 283.563C214.544 230.283 204.064 172.823 205.774 117.113C205.854 98.0128 205.634 79.2828 206.044 60.1128C204.984 40.3628 214.414 4.9828 186.664 1.5328C128.554 -3.2572 61.5737 0.802803 23.3237 50.2128C-2.25633 80.9028 -0.216331 121.633 0.223669 159.433V159.633L1.55367 294.743L1.56367 294.733Z" fill="white"/>
<path d="M1.0825 458.712C1.2125 504.502 4.8825 548.632 31.3825 587.782C42.0625 604.392 55.0225 620.182 70.5825 632.382C87.4725 645.442 107.632 655.602 127.202 663.952C150.233 673.482 175.013 677.722 199.643 678.992C225.443 680.472 253.242 680.712 279.832 679.792C325.112 678.832 364.993 671.192 396.812 636.862C413.782 618.542 427.722 597.172 431.622 572.002C437.152 539.992 429.312 509.562 411.112 482.822C394.152 458.052 367.083 440.032 338.853 430.152C329.593 427.082 317.312 424.792 308.372 424.182C275.282 423.742 146.813 424.222 65.9425 424.022C51.4525 424.012 37.9825 424.022 23.9525 424.022C19.4425 424.272 14.7525 423.352 10.9425 424.962C0.502501 430.792 1.0325 447.882 1.0925 458.532V458.732L1.0825 458.712Z" fill="white"/>
<path d="M678.764 385.603C677.924 355.683 681.054 325.323 677.134 295.833C672.574 276.093 634.864 285.492 619.824 286.412C559.154 295.822 505.994 339.323 484.914 396.773C465.784 450.053 476.264 507.513 474.554 563.223C474.474 582.323 474.694 601.053 474.284 620.223C475.344 639.973 465.914 675.352 493.664 678.802C551.764 683.602 618.754 679.542 657.004 630.122C682.574 599.432 680.534 558.703 680.094 520.913V520.713L678.764 385.603Z" fill="white"/>
<path d="M679.234 221.622C679.104 175.832 675.434 131.702 648.934 92.5524C638.254 75.9424 625.294 60.1524 609.734 47.9524C592.844 34.8924 572.684 24.7324 553.114 16.3824C530.084 6.85235 505.304 2.61235 480.674 1.34235C454.874 -0.137648 427.074 -0.377648 400.484 0.542352C355.204 1.50235 315.324 9.14235 283.504 43.4724C266.534 61.7924 252.594 83.1624 248.694 108.332C243.164 140.342 251.004 170.772 269.204 197.512C286.164 222.282 313.234 240.302 341.464 250.182C350.724 253.252 363.004 255.542 371.944 256.152C405.034 256.592 533.504 256.112 614.374 256.312C628.864 256.322 642.334 256.312 656.364 256.312C660.874 256.062 665.564 256.982 669.374 255.372C679.814 249.542 679.284 232.452 679.224 221.802V221.602L679.234 221.622Z" fill="white"/>
<path d="M1689.18 416.84H1255.58C1256.33 506.824 1328.85 591.819 1420.04 598.354C1501.94 604.217 1570.72 565.235 1609.28 493.633L1670.34 523.74C1610.14 628.568 1496.52 684.223 1376.37 655.542C1216.29 617.327 1145.93 430.314 1214.37 286.167C1266.84 175.637 1383.5 121.878 1502.85 151.003C1619.57 179.483 1702.74 296.669 1689.16 416.854L1689.18 416.84ZM1618.03 352.297C1605.12 282.389 1549.5 225.604 1479.8 211.741C1401.04 196.062 1324.69 227.124 1283.19 295.929C1276.49 307.036 1261.89 337.331 1261.45 349.527C1261.39 351.181 1261.67 351.275 1262.95 352.297H1618.02H1618.03Z" fill="white"/>
<path d="M2489.25 301.201H2424.14C2421.14 295.137 2421.86 287.136 2420.13 279.673C2396.74 179.242 2180.68 186.382 2195.61 296.145C2203.07 351.007 2311.81 357.811 2355.02 369.093C2419.48 385.928 2480.62 415.416 2490.42 488.954C2508.79 626.848 2366.96 677.461 2253.87 658.662C2168.94 644.557 2104.54 581.52 2106.66 492.141H2171.1C2170.86 544.892 2206.35 581.628 2255.66 593.676C2313.12 607.727 2421.2 594.361 2426.13 518.335C2431.83 430.462 2303.92 426.267 2243.56 410.804C2187.21 396.362 2135.3 367.613 2129.64 303.043C2116.76 155.67 2290.8 114.806 2400.19 165.163C2454.82 190.308 2487.92 240.706 2489.24 301.201H2489.25Z" fill="white"/>
<path d="M1759.65 492.14C1762.94 493.162 1761.31 501.997 1761.67 504.901C1773.21 596.808 1886.8 615.713 1959.34 587.288C2038.28 556.374 2035.38 467.6 1953.95 438.691C1871.71 409.498 1726.87 418.212 1718.64 299.237C1708.13 147.09 1903.46 110.556 2008.54 175.583C2052.64 202.866 2079.83 250.077 2078.44 302.545C2077.96 303.217 2076.72 301.2 2076.44 301.2H2012.68C2012.06 221.611 1923.88 200.809 1859.36 211.499C1813.4 219.123 1761.54 266.078 1792.74 315.091C1815.51 350.858 1911.57 359.988 1952.55 371.498C2033.04 394.089 2092.08 437.279 2080.97 530.288C2067.96 639.083 1945.75 671.973 1852.45 660.02C1764.05 648.698 1695.7 584.423 1697.21 492.127H1759.63L1759.65 492.14Z" fill="white"/>
<path d="M972.336 0V150.601H1175.04V217.833H972.336L972.282 492.867C974.457 539.688 987.854 582.663 1038.11 595.006C1084.98 606.517 1133.4 590.946 1175.04 570.131V641.397C1153.21 648.913 1131.47 656.833 1108.4 660.034C998.687 675.242 911.954 622.626 907.914 506.246V217.833H788.426V151.945L907.9 150.601V0H972.336Z" fill="white"/>
</svg>
